Raleway-Light.ufo
<glyph name="two" format="1">
  <advance width="508"/>
  <unicode hex="0032"/>
  <outline>
    <contour>
      <point x="460" y="0" type="line"/>
      <point x="460" y="46" type="line"/>
      <point x="102" y="46" type="line"/>
      <point x="104" y="137"/>
      <point x="161" y="195"/>
      <point x="265" y="239" type="curve" smooth="yes"/>
      <point x="326" y="265"/>
      <point x="449" y="317"/>
      <point x="449" y="425" type="curve" smooth="yes"/>
      <point x="449" y="508"/>
      <point x="380" y="581"/>
      <point x="259" y="581" type="curve" smooth="yes"/>
      <point x="139" y="581"/>
      <point x="64" y="497"/>
      <point x="54" y="486" type="curve"/>
      <point x="88" y="451" type="line"/>
      <point x="105" y="472"/>
      <point x="160" y="535"/>
      <point x="252" y="535" type="curve" smooth="yes"/>
      <point x="348" y="535"/>
      <point x="395" y="477"/>
      <point x="395" y="423" type="curve" smooth="yes"/>
      <point x="395" y="333"/>
      <point x="289" y="299"/>
      <point x="213" y="262" type="curve" smooth="yes"/>
      <point x="63" y="191"/>
      <point x="45" y="75"/>
      <point x="45" y="0" type="curve"/>
    </contour>
  </outline>
</glyph>
<glyph name="five" format="1">
  <advance width="542"/>
  <unicode hex="0035"/>
  <outline>
    <contour>
      <point x="274" y="310" type="curve" smooth="yes"/>
      <point x="210" y="310"/>
      <point x="152" y="286"/>
      <point x="112" y="243" type="curve"/>
      <point x="168" y="524" type="line"/>
      <point x="470" y="524" type="line"/>
      <point x="470" y="571" type="line"/>
      <point x="130" y="571" type="line"/>
      <point x="130" y="571"/>
      <point x="59" y="217"/>
      <point x="51" y="177" type="curve"/>
      <point x="99" y="177" type="line"/>
      <point x="138" y="233"/>
      <point x="202" y="264"/>
      <point x="269" y="264" type="curve" smooth="yes"/>
      <point x="372" y="264"/>
      <point x="454" y="190"/>
      <point x="454" y="84" type="curve" smooth="yes"/>
      <point x="454" y="-27"/>
      <point x="370" y="-103"/>
      <point x="263" y="-103" type="curve" smooth="yes"/>
      <point x="182" y="-103"/>
      <point x="109" y="-57"/>
      <point x="73" y="12" type="curve"/>
      <point x="36" y="-9" type="line"/>
      <point x="76" y="-93"/>
      <point x="162" y="-149"/>
      <point x="263" y="-149" type="curve" smooth="yes"/>
      <point x="394" y="-149"/>
      <point x="505" y="-56"/>
      <point x="505" y="84" type="curve" smooth="yes"/>
      <point x="505" y="217"/>
      <point x="402" y="310"/>
    </contour>
  </outline>
</glyph>
<glyph name="question" format="1">
  <advance width="473"/>
  <unicode hex="003F"/>
  <outline>
    <contour>
      <point x="207" y="193" type="line"/>
      <point x="207" y="298"/>
      <point x="236" y="323"/>
      <point x="291" y="349" type="curve" smooth="yes"/>
      <point x="361" y="382"/>
      <point x="435" y="418"/>
      <point x="435" y="530" type="curve" smooth="yes"/>
      <point x="435" y="656"/>
      <point x="341" y="719"/>
      <point x="243" y="719" type="curve" smooth="yes"/>
      <point x="158" y="719"/>
      <point x="71" y="673"/>
      <point x="35" y="590" type="curve"/>
      <point x="71" y="568" type="line"/>
      <point x="102" y="631"/>
      <point x="168" y="676"/>
      <point x="243" y="676" type="curve" smooth="yes"/>
      <point x="317" y="676"/>
      <point x="390" y="630"/>
      <point x="390" y="533" type="curve" smooth="yes"/>
      <point x="390" y="429"/>
      <point x="305" y="402"/>
      <point x="248" y="370" type="curve" smooth="yes"/>
      <point x="194" y="339"/>
      <point x="163" y="296"/>
      <point x="163" y="193" type="curve"/>
    </contour>
    <contour>
      <point x="208" y="0" type="line"/>
      <point x="208" y="98" type="line"/>
      <point x="164" y="98" type="line"/>
      <point x="164" y="0" type="line"/>
    </contour>
  </outline>
</glyph>
<glyph name="P" format="1">
  <advance width="621"/>
  <unicode hex="0050"/>
  <outline>
    <contour>
      <point x="144" y="0" type="line"/>
      <point x="144" y="268" type="line"/>
      <point x="391" y="268" type="line" smooth="yes"/>
      <point x="511" y="268"/>
      <point x="592" y="376"/>
      <point x="592" y="490" type="curve" smooth="yes"/>
      <point x="592" y="598"/>
      <point x="505" y="710"/>
      <point x="385" y="710" type="curve" smooth="yes"/>
      <point x="93" y="710" type="line"/>
      <point x="93" y="0" type="line"/>
    </contour>
    <contour>
      <point x="144" y="664" type="line"/>
      <point x="383" y="664" type="line" smooth="yes"/>
      <point x="469" y="664"/>
      <point x="540" y="583"/>
      <point x="540" y="490" type="curve" smooth="yes"/>
      <point x="540" y="400"/>
      <point x="482" y="315"/>
      <point x="389" y="315" type="curve" smooth="yes"/>
      <point x="144" y="315" type="line"/>
    </contour>
  </outline>
</glyph>
<glyph name="T" format="1">
  <advance width="606"/>
  <unicode hex="0054"/>
  <outline>
    <contour>
      <point x="304" y="707" type="move" name="top"/>
    </contour>
    <contour>
      <point x="304" y="0" type="move" name="bottom"/>
    </contour>
    <contour>
      <point x="589" y="710" type="line"/>
      <point x="18" y="710" type="line"/>
      <point x="18" y="664" type="line"/>
      <point x="278" y="664" type="line"/>
      <point x="278" y="0" type="line"/>
      <point x="329" y="0" type="line"/>
      <point x="329" y="664" type="line"/>
      <point x="589" y="664" type="line"/>
    </contour>
  </outline>
</glyph>
<glyph name="n" format="1">
  <advance width="576"/>
  <unicode hex="006E"/>
  <outline>
    <contour>
      <point x="290" y="520" type="move" name="top"/>
    </contour>
    <contour>
      <point x="286" y="0" type="move" name="bottom"/>
    </contour>
    <contour>
      <point x="503" y="299" type="line"/>
      <point x="503" y="446"/>
      <point x="461" y="529"/>
      <point x="348" y="529" type="curve" smooth="yes"/>
      <point x="256" y="529"/>
      <point x="167" y="475"/>
      <point x="125" y="396" type="curve"/>
      <point x="125" y="520" type="line"/>
      <point x="78" y="520" type="line"/>
      <point x="78" y="0" type="line"/>
      <point x="128" y="0" type="line"/>
      <point x="128" y="322" type="line"/>
      <point x="155" y="414"/>
      <point x="246" y="483"/>
      <point x="334" y="483" type="curve" smooth="yes"/>
      <point x="416" y="483"/>
      <point x="453" y="424"/>
      <point x="453" y="290" type="curve" smooth="yes"/>
      <point x="453" y="0" type="line"/>
      <point x="503" y="0" type="line"/>
    </contour>
  </outline>
</glyph>
<glyph name="p" format="1">
  <advance width="612"/>
  <unicode hex="0070"/>
  <outline>
    <contour>
      <point x="332" y="-10" type="curve" smooth="yes"/>
      <point x="474" y="-10"/>
      <point x="570" y="114"/>
      <point x="570" y="259" type="curve" smooth="yes"/>
      <point x="570" y="396"/>
      <point x="466" y="529"/>
      <point x="321" y="529" type="curve" smooth="yes"/>
      <point x="242" y="529"/>
      <point x="167" y="482"/>
      <point x="124" y="416" type="curve"/>
      <point x="124" y="520" type="line"/>
      <point x="78" y="520" type="line"/>
      <point x="78" y="-213" type="line"/>
      <point x="128" y="-213" type="line"/>
      <point x="128" y="112" type="line"/>
      <point x="171" y="44"/>
      <point x="243" y="-10"/>
    </contour>
    <contour>
      <point x="320" y="35" type="curve" smooth="yes"/>
      <point x="237" y="35"/>
      <point x="162" y="96"/>
      <point x="128" y="173" type="curve"/>
      <point x="128" y="344" type="line"/>
      <point x="137" y="418"/>
      <point x="239" y="484"/>
      <point x="311" y="484" type="curve" smooth="yes"/>
      <point x="427" y="484"/>
      <point x="519" y="378"/>
      <point x="519" y="259" type="curve" smooth="yes"/>
      <point x="519" y="147"/>
      <point x="441" y="35"/>
    </contour>
  </outline>
</glyph>
<glyph name="threesuperior" format="1">
  <advance width="386"/>
  <unicode hex="00B3"/>
  <outline>
    <contour>
      <point x="190" y="407" type="curve" smooth="yes"/>
      <point x="275" y="407"/>
      <point x="346" y="449"/>
      <point x="346" y="514" type="curve" smooth="yes"/>
      <point x="346" y="565"/>
      <point x="306" y="605"/>
      <point x="244" y="615" type="curve"/>
      <point x="303" y="627"/>
      <point x="334" y="657"/>
      <point x="334" y="702" type="curve" smooth="yes"/>
      <point x="334" y="764"/>
      <point x="270" y="811"/>
      <point x="184" y="811" type="curve" smooth="yes"/>
      <point x="122" y="811"/>
      <point x="65" y="786"/>
      <point x="42" y="747" type="curve"/>
      <point x="67" y="721" type="line"/>
      <point x="86" y="755"/>
      <point x="129" y="778"/>
      <point x="184" y="778" type="curve" smooth="yes"/>
      <point x="246" y="778"/>
      <point x="296" y="747"/>
      <point x="296" y="700" type="curve" smooth="yes"/>
      <point x="296" y="654"/>
      <point x="246" y="630"/>
      <point x="161" y="630" type="curve" smooth="yes"/>
      <point x="138" y="630" type="line"/>
      <point x="138" y="598" type="line"/>
      <point x="161" y="598" type="line" smooth="yes"/>
      <point x="251" y="598"/>
      <point x="310" y="568"/>
      <point x="310" y="519" type="curve" smooth="yes"/>
      <point x="310" y="474"/>
      <point x="257" y="443"/>
      <point x="190" y="443" type="curve" smooth="yes"/>
      <point x="117" y="443"/>
      <point x="64" y="482"/>
      <point x="60" y="520" type="curve"/>
      <point x="37" y="499" type="line"/>
      <point x="45" y="444"/>
      <point x="107" y="407"/>
    </contour>
  </outline>
</glyph>
<glyph name="oslash" format="1">
  <advance width="592"/>
  <unicode hex="00F8"/>
  <outline>
    <contour>
      <point x="296" y="-10" type="curve" smooth="yes"/>
      <point x="441" y="-10"/>
      <point x="550" y="114"/>
      <point x="550" y="259" type="curve" smooth="yes"/>
      <point x="550" y="405"/>
      <point x="439" y="529"/>
      <point x="296" y="529" type="curve" smooth="yes"/>
      <point x="152" y="529"/>
      <point x="42" y="405"/>
      <point x="42" y="259" type="curve" smooth="yes"/>
      <point x="42" y="114"/>
      <point x="150" y="-10"/>
    </contour>
    <contour>
      <point x="295" y="35" type="curve" smooth="yes"/>
      <point x="183" y="35"/>
      <point x="92" y="134"/>
      <point x="92" y="257" type="curve" smooth="yes"/>
      <point x="92" y="381"/>
      <point x="185" y="484"/>
      <point x="296" y="484" type="curve" smooth="yes"/>
      <point x="407" y="484"/>
      <point x="499" y="382"/>
      <point x="499" y="260" type="curve" smooth="yes"/>
      <point x="499" y="136"/>
      <point x="407" y="35"/>
    </contour>
    <contour>
      <point x="142" y="-1" type="line"/>
      <point x="179" y="49" type="line"/>
      <point x="155" y="70" type="line"/>
      <point x="104" y="-1" type="line"/>
    </contour>
    <contour>
      <point x="180" y="53" type="line"/>
      <point x="438" y="451" type="line"/>
      <point x="412" y="468" type="line"/>
      <point x="158" y="72" type="line"/>
    </contour>
    <contour>
      <point x="440" y="453" type="line"/>
      <point x="489" y="521" type="line"/>
      <point x="449" y="521" type="line"/>
      <point x="414" y="471" type="line"/>
    </contour>
  </outline>
</glyph>
<glyph name="dcroat" format="1">
  <advance width="615"/>
  <unicode hex="0111"/>
  <outline>
    <contour>
      <point x="606" y="623" type="line"/>
      <point x="606" y="659" type="line"/>
      <point x="366" y="659" type="line"/>
      <point x="366" y="623" type="line"/>
    </contour>
    <component base="d"/>
  </outline>
</glyph>
<glyph name="hbar" format="1">
  <advance width="576"/>
  <unicode hex="0127"/>
  <outline>
    <contour>
      <point x="253" y="623" type="line"/>
      <point x="253" y="659" type="line"/>
      <point x="12" y="659" type="line"/>
      <point x="12" y="623" type="line"/>
    </contour>
    <component base="h"/>
  </outline>
</glyph>
<glyph name="lslash" format="1">
  <advance width="277"/>
  <unicode hex="0142"/>
  <outline>
    <contour>
      <point x="260" y="490" type="line"/>
      <point x="240" y="520" type="line"/>
      <point x="12" y="324" type="line"/>
      <point x="32" y="295" type="line"/>
    </contour>
    <component base="l" xOffset="17"/>
  </outline>
</glyph>
<glyph name="OE" format="1">
  <advance width="1173"/>
  <unicode hex="0152"/>
  <outline>
    <contour>
      <point x="709" y="46" type="line"/>
      <point x="709" y="339" type="line"/>
      <point x="1065" y="339" type="line"/>
      <point x="1065" y="386" type="line"/>
      <point x="709" y="386" type="line"/>
      <point x="709" y="664" type="line"/>
      <point x="1119" y="664" type="line"/>
      <point x="1119" y="710" type="line"/>
      <point x="659" y="710" type="line"/>
      <point x="659" y="509" type="line"/>
      <point x="615" y="622"/>
      <point x="511" y="715"/>
      <point x="377" y="715" type="curve" smooth="yes"/>
      <point x="188" y="715"/>
      <point x="44" y="544"/>
      <point x="44" y="355" type="curve" smooth="yes"/>
      <point x="44" y="173"/>
      <point x="180" y="-5"/>
      <point x="378" y="-5" type="curve" smooth="yes"/>
      <point x="506" y="-5"/>
      <point x="613" y="85"/>
      <point x="659" y="200" type="curve"/>
      <point x="659" y="0" type="line"/>
      <point x="1128" y="0" type="line"/>
      <point x="1128" y="46" type="line"/>
    </contour>
    <contour>
      <point x="377" y="42" type="curve" smooth="yes"/>
      <point x="211" y="42"/>
      <point x="95" y="192"/>
      <point x="95" y="355" type="curve" smooth="yes"/>
      <point x="95" y="510"/>
      <point x="207" y="668"/>
      <point x="377" y="668" type="curve" smooth="yes"/>
      <point x="539" y="668"/>
      <point x="657" y="518"/>
      <point x="657" y="356" type="curve" smooth="yes"/>
      <point x="657" y="200"/>
      <point x="547" y="42"/>
    </contour>
  </outline>
</glyph>
<glyph name="Tbar" format="1">
  <advance width="641"/>
  <unicode hex="0166"/>
  <outline>
    <contour>
      <point x="574" y="380" type="line"/>
      <point x="574" y="412" type="line"/>
      <point x="67" y="412" type="line"/>
      <point x="67" y="380" type="line"/>
    </contour>
    <component base="T" xOffset="17"/>
  </outline>
</glyph>
<glyph name="ring" format="1">
  <advance width="244"/>
  <unicode hex="02DA"/>
  <outline>
    <contour>
      <point x="122" y="520" type="move" name="_top"/>
    </contour>
    <contour>
      <point x="54" y="668" type="curve" smooth="yes"/>
      <point x="54" y="631"/>
      <point x="83" y="605"/>
      <point x="122" y="605" type="curve" smooth="yes"/>
      <point x="161" y="605"/>
      <point x="190" y="631"/>
      <point x="190" y="668" type="curve" smooth="yes"/>
      <point x="190" y="704"/>
      <point x="161" y="730"/>
      <point x="122" y="730" type="curve" smooth="yes"/>
      <point x="83" y="730"/>
      <point x="54" y="704"/>
    </contour>
    <contour>
      <point x="122" y="707" type="curve" smooth="yes"/>
      <point x="145" y="707"/>
      <point x="163" y="692"/>
      <point x="163" y="668" type="curve" smooth="yes"/>
      <point x="163" y="645"/>
      <point x="143" y="628"/>
      <point x="122" y="628" type="curve" smooth="yes"/>
      <point x="99" y="628"/>
      <point x="82" y="646"/>
      <point x="82" y="668" type="curve" smooth="yes"/>
      <point x="82" y="692"/>
      <point x="100" y="707"/>
    </contour>
  </outline>
</glyph>
<glyph name="pi" format="1">
  <advance width="571"/>
  <unicode hex="03C0"/>
  <outline>
    <contour>
      <point x="371" y="474" type="line"/>
      <point x="371" y="88" type="line" smooth="yes"/>
      <point x="371" y="31"/>
      <point x="407" y="-6"/>
      <point x="462" y="-6" type="curve" smooth="yes"/>
      <point x="486" y="-6"/>
      <point x="524" y="1"/>
      <point x="547" y="10" type="curve"/>
      <point x="537" y="50" type="line"/>
      <point x="520" y="44"/>
      <point x="498" y="40"/>
      <point x="483" y="40" type="curve" smooth="yes"/>
      <point x="444" y="40"/>
      <point x="420" y="64"/>
      <point x="420" y="103" type="curve" smooth="yes"/>
      <point x="420" y="474" type="line"/>
      <point x="530" y="474" type="line"/>
      <point x="530" y="520" type="line"/>
      <point x="25" y="520" type="line"/>
      <point x="25" y="474" type="line"/>
      <point x="105" y="474" type="line"/>
      <point x="105" y="0" type="line"/>
      <point x="154" y="0" type="line"/>
      <point x="154" y="474" type="line"/>
    </contour>
  </outline>
</glyph>
<glyph name="uni040B" format="1">
  <advance width="699"/>
  <unicode hex="040B"/>
  <outline>
    <contour>
      <point x="205" y="0" type="line"/>
      <point x="256" y="0" type="line"/>
      <point x="256" y="664" type="line"/>
      <point x="533" y="664" type="line"/>
      <point x="533" y="710" type="line"/>
      <point x="16" y="710" type="line"/>
      <point x="16" y="664" type="line"/>
      <point x="205" y="664" type="line"/>
    </contour>
    <contour>
      <point x="609" y="0" type="line"/>
      <point x="658" y="0" type="line"/>
      <point x="658" y="216" type="line" smooth="yes"/>
      <point x="658" y="368"/>
      <point x="586" y="436"/>
      <point x="444" y="436" type="curve" smooth="yes"/>
      <point x="369" y="436"/>
      <point x="296" y="413"/>
      <point x="242" y="375" type="curve"/>
      <point x="242" y="323" type="line"/>
      <point x="289" y="363"/>
      <point x="368" y="390"/>
      <point x="445" y="390" type="curve" smooth="yes"/>
      <point x="560" y="390"/>
      <point x="609" y="336"/>
      <point x="609" y="206" type="curve" smooth="yes"/>
    </contour>
  </outline>
</glyph>
<glyph name="uni0431" format="1">
  <advance width="572"/>
  <unicode hex="0431"/>
  <outline>
    <contour>
      <point x="491" y="698" type="line"/>
      <point x="481" y="741" type="line"/>
      <point x="334" y="708" type="line" smooth="yes"/>
      <point x="167" y="670"/>
      <point x="59" y="552"/>
      <point x="59" y="284" type="curve" smooth="yes"/>
      <point x="59" y="102"/>
      <point x="138" y="-10"/>
      <point x="286" y="-10" type="curve" smooth="yes"/>
      <point x="437" y="-10"/>
      <point x="526" y="95"/>
      <point x="526" y="241" type="curve" smooth="yes"/>
      <point x="526" y="394"/>
      <point x="439" y="493"/>
      <point x="301" y="493" type="curve" smooth="yes"/>
      <point x="211" y="493"/>
      <point x="148" y="450"/>
      <point x="111" y="380" type="curve"/>
      <point x="127" y="546"/>
      <point x="207" y="633"/>
      <point x="335" y="662" type="curve" smooth="yes"/>
    </contour>
    <contour>
      <point x="111" y="243" type="curve" smooth="yes"/>
      <point x="111" y="372"/>
      <point x="186" y="446"/>
      <point x="291" y="446" type="curve" smooth="yes"/>
      <point x="407" y="446"/>
      <point x="476" y="369"/>
      <point x="476" y="241" type="curve" smooth="yes"/>
      <point x="476" y="123"/>
      <point x="406" y="33"/>
      <point x="292" y="33" type="curve" smooth="yes"/>
      <point x="178" y="33"/>
      <point x="111" y="124"/>
    </contour>
  </outline>
</glyph>
<glyph name="uni0443" format="1">
  <advance width="540"/>
  <unicode hex="0443"/>
  <outline>
    <contour>
      <point x="74" y="-200" type="line"/>
      <point x="90" y="-214"/>
      <point x="111" y="-221"/>
      <point x="138" y="-221" type="curve" smooth="yes"/>
      <point x="189" y="-221"/>
      <point x="223" y="-191"/>
      <point x="261" y="-99" type="curve" smooth="yes"/>
      <point x="518" y="520" type="line"/>
      <point x="469" y="520" type="line"/>
      <point x="276" y="49" type="line"/>
      <point x="69" y="520" type="line"/>
      <point x="17" y="520" type="line"/>
      <point x="249" y="0" type="line"/>
      <point x="197" y="-143"/>
      <point x="172" y="-177"/>
      <point x="135" y="-177" type="curve" smooth="yes"/>
      <point x="115" y="-177"/>
      <point x="96" y="-171"/>
      <point x="79" y="-156" type="curve"/>
    </contour>
  </outline>
</glyph>
<glyph name="uni0447" format="1">
  <advance width="477"/>
  <unicode hex="0447"/>
  <outline>
    <contour>
      <point x="398" y="520" type="line"/>
      <point x="348" y="520" type="line"/>
      <point x="348" y="276" type="line"/>
      <point x="323" y="259"/>
      <point x="275" y="245"/>
      <point x="218" y="245" type="curve" smooth="yes"/>
      <point x="135" y="245"/>
      <point x="93" y="286"/>
      <point x="93" y="391" type="curve" smooth="yes"/>
      <point x="93" y="520" type="line"/>
      <point x="44" y="520" type="line"/>
      <point x="44" y="383" type="line" smooth="yes"/>
      <point x="44" y="271"/>
      <point x="90" y="201"/>
      <point x="212" y="201" type="curve" smooth="yes"/>
      <point x="271" y="201"/>
      <point x="310" y="209"/>
      <point x="348" y="225" type="curve"/>
      <point x="348" y="0" type="line"/>
      <point x="398" y="0" type="line"/>
    </contour>
  </outline>
</glyph>
<glyph name="uni044D" format="1">
  <advance width="540"/>
  <unicode hex="044D"/>
  <outline>
    <contour>
      <point x="245" y="-9" type="curve" smooth="yes"/>
      <point x="399" y="-9"/>
      <point x="499" y="126"/>
      <point x="499" y="262" type="curve" smooth="yes"/>
      <point x="499" y="395"/>
      <point x="404" y="529"/>
      <point x="243" y="529" type="curve" smooth="yes"/>
      <point x="144" y="529"/>
      <point x="76" y="479"/>
      <point x="42" y="412" type="curve"/>
      <point x="78" y="393" type="line"/>
      <point x="116" y="462"/>
      <point x="184" y="488"/>
      <point x="245" y="488" type="curve" smooth="yes"/>
      <point x="365" y="488"/>
      <point x="439" y="390"/>
      <point x="449" y="286" type="curve"/>
      <point x="176" y="286" type="line"/>
      <point x="176" y="245" type="line"/>
      <point x="450" y="245" type="line"/>
      <point x="444" y="126"/>
      <point x="354" y="32"/>
      <point x="245" y="32" type="curve" smooth="yes"/>
      <point x="180" y="32"/>
      <point x="106" y="64"/>
      <point x="71" y="133" type="curve"/>
      <point x="32" y="115" type="line"/>
      <point x="66" y="35"/>
      <point x="155" y="-9"/>
    </contour>
  </outline>
</glyph>
<glyph name="uni0459" format="1">
  <advance width="790"/>
  <unicode hex="0459"/>
  <outline>
    <contour>
      <point x="15" y="-2" type="line"/>
      <point x="110" y="1"/>
      <point x="157" y="79"/>
      <point x="191" y="361" type="curve" smooth="yes"/>
      <point x="205" y="479" type="line"/>
      <point x="397" y="479" type="line"/>
      <point x="397" y="0" type="line"/>
      <point x="596" y="0" type="line" smooth="yes"/>
      <point x="690" y="0"/>
      <point x="754" y="60"/>
      <point x="754" y="153" type="curve" smooth="yes"/>
      <point x="754" y="248"/>
      <point x="690" y="305"/>
      <point x="596" y="305" type="curve" smooth="yes"/>
      <point x="447" y="305" type="line"/>
      <point x="447" y="520" type="line"/>
      <point x="158" y="520" type="line"/>
      <point x="144" y="383" type="line" smooth="yes"/>
      <point x="116" y="108"/>
      <point x="75" y="46"/>
      <point x="8" y="43" type="curve"/>
    </contour>
    <contour>
      <point x="447" y="43" type="line"/>
      <point x="447" y="261" type="line"/>
      <point x="596" y="261" type="line" smooth="yes"/>
      <point x="673" y="261"/>
      <point x="704" y="215"/>
      <point x="704" y="153" type="curve" smooth="yes"/>
      <point x="704" y="92"/>
      <point x="670" y="43"/>
      <point x="596" y="43" type="curve" smooth="yes"/>
    </contour>
  </outline>
</glyph>
<glyph name="uni045B" format="1">
  <advance width="577"/>
  <unicode hex="045B"/>
  <outline>
    <contour>
      <point x="454" y="0" type="line"/>
      <point x="504" y="0" type="line"/>
      <point x="504" y="268" type="line" smooth="yes"/>
      <point x="504" y="419"/>
      <point x="452" y="497"/>
      <point x="334" y="497" type="curve" smooth="yes"/>
      <point x="240" y="497"/>
      <point x="162" y="437"/>
      <point x="129" y="344" type="curve"/>
      <point x="129" y="596" type="line"/>
      <point x="366" y="596" type="line"/>
      <point x="366" y="636" type="line"/>
      <point x="129" y="636" type="line"/>
      <point x="129" y="730" type="line"/>
      <point x="79" y="730" type="line"/>
      <point x="79" y="636" type="line"/>
      <point x="5" y="636" type="line"/>
      <point x="5" y="596" type="line"/>
      <point x="79" y="596" type="line"/>
      <point x="79" y="0" type="line"/>
      <point x="129" y="0" type="line"/>
      <point x="129" y="265" type="line"/>
      <point x="154" y="373"/>
      <point x="228" y="451"/>
      <point x="320" y="451" type="curve" smooth="yes"/>
      <point x="414" y="451"/>
      <point x="454" y="386"/>
      <point x="454" y="259" type="curve" smooth="yes"/>
    </contour>
  </outline>
</glyph>
<glyph name="emdash" format="1">
  <advance width="892"/>
  <unicode hex="2014"/>
  <outline>
    <contour>
      <point x="825" y="249" type="line"/>
      <point x="825" y="295" type="line"/>
      <point x="67" y="295" type="line"/>
      <point x="67" y="249" type="line"/>
    </contour>
  </outline>
</glyph>
<glyph name="quoteleft" format="1">
  <advance width="185"/>
  <unicode hex="2018"/>
  <outline>
    <contour>
      <point x="87" y="730" type="line"/>
      <point x="66" y="631" type="line"/>
      <point x="66" y="540" type="line"/>
      <point x="118" y="540" type="line"/>
      <point x="118" y="631" type="line"/>
      <point x="99" y="631" type="line"/>
      <point x="114" y="730" type="line"/>
    </contour>
  </outline>
</glyph>
<glyph name="afii61352" format="1">
  <advance width="1124"/>
  <unicode hex="2116"/>
  <outline>
    <contour>
      <point x="634" y="0" type="line"/>
      <point x="681" y="0" type="line"/>
      <point x="681" y="709" type="line"/>
      <point x="630" y="709" type="line"/>
      <point x="630" y="85" type="line"/>
      <point x="132" y="710" type="line"/>
      <point x="93" y="710" type="line"/>
      <point x="93" y="0" type="line"/>
      <point x="144" y="0" type="line"/>
      <point x="144" y="614" type="line"/>
    </contour>
    <component base="ordmasculine" xOffset="702" yOffset="3"/>
  </outline>
</glyph>
<glyph name="f_f_l" format="1">
  <advance width="788"/>
  <unicode hex="FB04"/>
  <outline>
    <contour>
      <point x="708" y="-6" type="curve" smooth="yes"/>
      <point x="744" y="-6"/>
      <point x="789" y="6"/>
      <point x="790" y="8" type="curve"/>
      <point x="778" y="50" type="line"/>
      <point x="776" y="50"/>
      <point x="743" y="40"/>
      <point x="719" y="40" type="curve" smooth="yes"/>
      <point x="679" y="40"/>
      <point x="661" y="74"/>
      <point x="661" y="102" type="curve" smooth="yes"/>
      <point x="661" y="595" type="line" smooth="yes"/>
      <point x="661" y="678"/>
      <point x="603" y="740"/>
      <point x="497" y="740" type="curve" smooth="yes"/>
      <point x="433" y="740"/>
      <point x="389" y="716"/>
      <point x="361" y="675" type="curve"/>
      <point x="340" y="687"/>
      <point x="310" y="701"/>
      <point x="262" y="701" type="curve" smooth="yes"/>
      <point x="157" y="701"/>
      <point x="101" y="622"/>
      <point x="101" y="527" type="curve" smooth="yes"/>
      <point x="101" y="520" type="line"/>
      <point x="28" y="520" type="line"/>
      <point x="28" y="479" type="line"/>
      <point x="101" y="479" type="line"/>
      <point x="101" y="0" type="line"/>
      <point x="151" y="0" type="line"/>
      <point x="151" y="479" type="line"/>
      <point x="327" y="479" type="line"/>
      <point x="327" y="0" type="line"/>
      <point x="377" y="0" type="line"/>
      <point x="377" y="479" type="line"/>
      <point x="492" y="479" type="line"/>
      <point x="492" y="520" type="line"/>
      <point x="377" y="520" type="line"/>
      <point x="377" y="534" type="line" smooth="yes"/>
      <point x="377" y="615"/>
      <point x="409" y="695"/>
      <point x="500" y="695" type="curve" smooth="yes"/>
      <point x="578" y="695"/>
      <point x="611" y="640"/>
      <point x="611" y="587" type="curve" smooth="yes"/>
      <point x="611" y="84" type="line" smooth="yes"/>
      <point x="611" y="36"/>
      <point x="644" y="-6"/>
    </contour>
    <contour>
      <point x="151" y="520" type="line"/>
      <point x="151" y="528" type="line" smooth="yes"/>
      <point x="151" y="590"/>
      <point x="185" y="656"/>
      <point x="270" y="656" type="curve" smooth="yes"/>
      <point x="293" y="656"/>
      <point x="322" y="653"/>
      <point x="344" y="636" type="curve"/>
      <point x="332" y="609"/>
      <point x="327" y="568"/>
      <point x="327" y="520" type="curve"/>
    </contour>
  </outline>
</glyph>
<glyph name="G.sc" format="1">
  <advance width="618"/>
  <outline>
    <contour>
      <point x="370" y="707" type="move" name="top"/>
    </contour>
    <contour>
      <point x="382" y="0" type="move" name="bottom"/>
    </contour>
    <contour>
      <point x="323" y="-4" type="curve" smooth="yes"/>
      <point x="401" y="-4"/>
      <point x="470" y="27"/>
      <point x="529" y="92" type="curve"/>
      <point x="529" y="142" type="line"/>
      <point x="467" y="72"/>
      <point x="400" y="39"/>
      <point x="327" y="39" type="curve" smooth="yes"/>
      <point x="196" y="39"/>
      <point x="94" y="147"/>
      <point x="94" y="272" type="curve" smooth="yes"/>
      <point x="94" y="390"/>
      <point x="180" y="506"/>
      <point x="317" y="506" type="curve" smooth="yes"/>
      <point x="399" y="506"/>
      <point x="467" y="475"/>
      <point x="506" y="406" type="curve"/>
      <point x="544" y="430" type="line"/>
      <point x="507" y="499"/>
      <point x="436" y="548"/>
      <point x="319" y="548" type="curve" smooth="yes"/>
      <point x="161" y="548"/>
      <point x="47" y="418"/>
      <point x="47" y="274" type="curve" smooth="yes"/>
      <point x="47" y="135"/>
      <point x="163" y="-4"/>
    </contour>
    <contour>
      <point x="519" y="0" type="line"/>
      <point x="560" y="0" type="line"/>
      <point x="560" y="266" type="line"/>
      <point x="386" y="266" type="line"/>
      <point x="386" y="229" type="line"/>
      <point x="519" y="229" type="line"/>
    </contour>
  </outline>
</glyph>
<glyph name="X.sc" format="1">
  <advance width="546"/>
  <outline>
    <contour>
      <point x="16" y="545" type="line"/>
      <point x="247" y="269" type="line"/>
      <point x="23" y="0" type="line"/>
      <point x="76" y="0" type="line"/>
      <point x="273" y="234" type="line"/>
      <point x="471" y="0" type="line"/>
      <point x="523" y="0" type="line"/>
      <point x="299" y="269" type="line"/>
      <point x="530" y="545" type="line"/>
      <point x="477" y="545" type="line"/>
      <point x="273" y="303" type="line"/>
      <point x="69" y="545" type="line"/>
    </contour>
  </outline>
</glyph>
<glyph name="zero.denominator" format="1">
  <advance width="450"/>
  <outline>
    <contour>
      <point x="226" y="-5" type="curve" smooth="yes"/>
      <point x="340" y="-5"/>
      <point x="411" y="98"/>
      <point x="411" y="194" type="curve" smooth="yes"/>
      <point x="411" y="280"/>
      <point x="348" y="393"/>
      <point x="226" y="393" type="curve" smooth="yes"/>
      <point x="111" y="393"/>
      <point x="39" y="289"/>
      <point x="39" y="194" type="curve" smooth="yes"/>
      <point x="39" y="106"/>
      <point x="102" y="-4"/>
    </contour>
    <contour>
      <point x="76" y="194" type="curve" smooth="yes"/>
      <point x="76" y="263"/>
      <point x="125" y="358"/>
      <point x="226" y="358" type="curve" smooth="yes"/>
      <point x="320" y="358"/>
      <point x="375" y="271"/>
      <point x="375" y="194" type="curve" smooth="yes"/>
      <point x="375" y="125"/>
      <point x="326" y="30"/>
      <point x="226" y="30" type="curve" smooth="yes"/>
      <point x="129" y="30"/>
      <point x="76" y="117"/>
    </contour>
  </outline>
</glyph>
<glyph name="zero.lnum" format="1">
  <advance width="678"/>
  <outline>
    <contour>
      <point x="339" y="-10" type="curve"/>
      <point x="517" y="-7"/>
      <point x="628" y="177"/>
      <point x="628" y="350" type="curve" smooth="yes"/>
      <point x="628" y="505"/>
      <point x="530" y="710"/>
      <point x="339" y="710" type="curve" smooth="yes"/>
      <point x="160" y="710"/>
      <point x="50" y="521"/>
      <point x="50" y="350" type="curve" smooth="yes"/>
      <point x="50" y="190"/>
      <point x="148" y="-5"/>
    </contour>
    <contour>
      <point x="101" y="350" type="curve"/>
      <point x="101" y="482"/>
      <point x="179" y="663"/>
      <point x="339" y="663" type="curve" smooth="yes"/>
      <point x="488" y="663"/>
      <point x="577" y="496"/>
      <point x="577" y="350" type="curve" smooth="yes"/>
      <point x="577" y="217"/>
      <point x="498" y="37"/>
      <point x="339" y="37" type="curve" smooth="yes"/>
      <point x="186" y="37"/>
      <point x="106" y="204"/>
    </contour>
  </outline>
</glyph>
